<?xml version="1.0" encoding="UTF-8"?>
<svg id="_レイヤー_2" data-name="レイヤー 2" xmlns="http://www.w3.org/2000/svg" viewBox="0 0 100.8291016 23.2990211">
  <defs>
    <style>
      .cls-1 {
        fill: #4d4d4d;
      }

      .cls-1, .cls-2 {
        stroke-width: 0px;
      }

      .cls-3 {
        fill: none;
        stroke: #e6e6e6;
        stroke-width: 3px;
      }
    </style>
  </defs>
  <g id="_ヘッダー_フッター" data-name="ヘッダー・フッター">
    <g>
      <g>
        <path class="cls-2" d="m32.7832031,14.788195l-.3818359-1.0708008c.5810547-.1274414,1.6210938-.4453125,3.1210938-.9545898v-3.8847656h-1.4775391c-.1826172.9848633-.4150391,1.7983398-.6972656,2.4404297l-1.0380859-.3237305c.2216797-.5698242.4208984-1.3793945.5976562-2.4282227.1777344-1.0483398.2685547-2.0957031.2744141-3.1416016l1.2285156.0166016c-.0332031.8520508-.1054688,1.6796875-.2158203,2.4819336h1.328125v-3.4365234h1.2617188v3.4365234h1.3359375v.9545898h-1.3359375v3.4448242c.6972656-.2490234,1.2587891-.4619141,1.6855469-.6391602l.2568359.9213867c-.3320312.1992188-.9794922.4814453-1.9423828.8466797v6.1425781h-1.2617188v-5.6860352c-1.1123047.3818359-2.0253906.675293-2.7392578.8798828Zm5.4785156,2.3408203l-.7802734-.6225586c.9072266-.9794922,1.7402344-2.269043,2.4980469-3.8681641.7587891-1.5991211,1.28125-3.1875,1.5693359-4.7646484h-1.1953125c-.5039062,1.0791016-1.0400391,1.9975586-1.6103516,2.7558594l-.921875-.5561523c1.0957031-1.59375,1.8769531-3.4833984,2.3417969-5.6694336l1.2695312.1743164c-.1601562.8188477-.3984375,1.6157227-.7138672,2.390625h6.9892578v5.3789062c0,1.3227539-.0566406,2.4863281-.1699219,3.4902344-.1132812,1.0048828-.2490234,1.7089844-.4072266,2.112793-.1572266.4038086-.3779297.715332-.6591797.934082-.2832031.2182617-.5556641.3579102-.8183594.4189453s-.90625.0913086-1.9296875.0913086c-.2597656,0-.4707031-.0029297-.6308594-.0083008l-.1914062-1.1123047h1.7353516c.3984375,0,.734375-.144043,1.0087891-.4316406.2734375-.2875977.4726562-.9423828.5976562-1.9628906.1240234-1.0214844.1865234-2.2124023.1865234-3.5737305v-4.4326172h-.8720703c-.2871094,2.5014648-.9003906,4.7758789-1.8378906,6.8232422-.9384766,2.0473633-2.0019531,3.5996094-3.1914062,4.6567383l-.796875-.6806641c1.1445312-1.1567383,2.1494141-2.7475586,3.0126953-4.7729492s1.4052734-4.0341797,1.6269531-6.0263672h-1.6357422c-.2480469,1.5219727-.7753906,3.1513672-1.5810547,4.8891602-.8046875,1.737793-1.7695312,3.1928711-2.8925781,4.3662109Z"/>
        <path class="cls-2" d="m52.3232422,19.5279411v-8.5996094c-.6308594,1.034668-1.2724609,1.90625-1.9257812,2.6147461l-.8125-.6806641c.9453125-1.1787109,1.8339844-2.5693359,2.6640625-4.1708984.8300781-1.6025391,1.3916016-3.0258789,1.6855469-4.2709961l1.3193359.2407227c-.2988281,1.1455078-.9765625,2.7006836-2.0341797,4.6650391h.4238281v10.2016602h-1.3203125Zm2.5322266-5.9350586v-1.0209961h5.0966797v-4.1835938h-2.78125c-.4365234,1.0625-.8457031,1.8427734-1.2285156,2.3408203l-1.0205078-.4814453c.3818359-.6088867.7792969-1.4443359,1.1914062-2.5068359s.6923828-1.9951172.8427734-2.7973633l1.2617188.2075195c-.1220703.6088867-.3378906,1.3417969-.6484375,2.199707h2.3828125v-2.9633789h1.3359375v2.9633789h4.2675781v1.0375977h-4.2675781v4.1835938h4.8896484v1.0209961h-4.8896484v5.8105469h-1.3359375v-5.8105469h-5.0966797Z"/>
        <path class="cls-2" d="m69.7109375,12.131945c-.4648438,1.3779297-1.0654297,2.5981445-1.8017578,3.6606445l-.7636719-.53125c.4707031-.7138672.9599609-1.7431641,1.4697266-3.0878906.5087891-1.3447266.8486328-2.4902344,1.0205078-3.4365234h-1.7597656l.0166016-.9545898h1.8183594v-3.3120117h1.2197266v3.3120117h1.2617188v.9545898h-1.2617188v1.7099609c.4208984.5424805.9570312,1.1870117,1.6103516,1.934082l-.6230469.8798828c-.2373047-.2436523-.5664062-.675293-.9873047-1.2949219v7.6118164h-1.2197266v-7.4458008Zm2.3320312,6.9228516l-.3320312-1.0375977c.3154297-.0942383.6972656-.2241211,1.1455078-.3901367V4.9019645h3.9511719v7.1967773h-2.8056641v5.0800781c.4755859-.1938477,1.0683594-.4482422,1.7763672-.7636719-.2158203-.8686523-.4404297-1.7236328-.6728516-2.5649414l1.0136719-.3071289c.1660156.4760742.5390625,1.8510742,1.1201172,4.1254883l-1.0869141.3320312c-.0175781-.0996094-.0664062-.3183594-.1503906-.6557617-1.3105469.6474609-2.6308594,1.2172852-3.9589844,1.7099609Zm3.6025391-13.2646484h-1.6435547v2.2329102h1.6435547v-2.2329102Zm-1.6435547,3.0712891v2.2827148h1.6435547v-2.2827148h-1.6435547Zm6.6572266,5.7275391c-.7910156,2.1196289-1.9980469,3.7768555-3.6191406,4.972168l-.6308594-.6806641c1.8535156-1.5439453,3.2509766-3.9541016,4.1923828-7.2299805h-3.0302734v-.9213867h.7138672v-4.8891602h-.4648438v-.9379883h5.3710938v.9379883h-.9384766v1.7348633c0,1.0737305-.0996094,2.125-.2988281,3.1542969h1.3115234v.9213867h-1.5439453c-.09375.3320312-.1855469.6196289-.2744141.8632812h.2744141v5.4619141c0,.3374023.1328125.5063477.3984375.5063477h.4316406c.2216797,0,.3613281-.0898438.4189453-.2700195.0585938-.1796875.109375-.9282227.1542969-2.2451172l.8632812.1079102v1.9921875c0,.5864258-.1523438.9575195-.4570312,1.1123047s-.7412109.2324219-1.3115234.2324219c-.7080078,0-1.1455078-.121582-1.3115234-.3652344s-.2490234-.5424805-.2490234-.8964844v-3.5610352Zm.1572266-3.8598633c.1611328-.8911133.2412109-1.9008789.2412109-3.0297852v-1.859375h-1.6269531v4.8891602h1.3857422Z"/>
        <path class="cls-2" d="m90.3369141,7.7740348v-1.5605469h-5.0302734v-.9711914h15.3154297v.9711914h-5.1464844v1.5605469h4.1914062v3.9179688h-7.6953125c-.1328125.2875977-.4091797.8134766-.8300781,1.5771484h9.6875v1.0292969h-2.8808594c-.5527344,1.1235352-1.3613281,2.0751953-2.4238281,2.8554688,1.7441406.4814453,3.1933594.9379883,4.3496094,1.3696289l-.7636719.987793c-1.34375-.53125-2.9238281-1.0761719-4.7392578-1.6352539-.8632812.4370117-2.1279297.8134766-3.7939453,1.1289062-1.6650391.3154297-3.1425781.5092773-4.4316406.5810547l-.25-.987793c1.5224609-.0610352,2.9296875-.2202148,4.2216797-.4770508,1.2919922-.2578125,2.2119141-.4887695,2.7597656-.6933594-.2490234-.0776367-.4589844-.1328125-.6308594-.1660156l-3.0048828-.5561523c-.5869141-.1108398-.9003906-.1757812-.9423828-.1948242-.0410156-.0195312-.0761719-.0571289-.1035156-.1123047s-.0419922-.121582-.0419922-.1992188c0-.0444336.0117188-.0830078.0332031-.1162109.3212891-.4702148.6835938-1.0654297,1.0878906-1.784668h-4.0839844v-1.0292969h4.640625c.2929688-.5644531.5498047-1.090332.7714844-1.5771484h-4.2832031v-3.9179688h4.0175781Zm0,3.0214844v-2.1166992h-2.7724609v2.1166992h2.7724609Zm3.8349609,5.9599609c.890625-.5424805,1.6572266-1.3613281,2.2998047-2.4570312h-5.9023438c-.359375.6308594-.6503906,1.1206055-.8710938,1.4692383.7744141.1606445,2.265625.4897461,4.4736328.987793Zm-2.5810547-10.5419922v1.5605469h2.6474609v-1.5605469h-2.6474609Zm0,2.465332v2.1166992h2.6474609v-2.1166992h-2.6474609Zm6.8144531,0h-2.9296875v2.1166992h2.9296875v-2.1166992Z"/>
      </g>
      <g>
        <path class="cls-1" d="m17.8105469,5.1200737c.203125,0,.3684082.1652756.3684082.3684311v15.4420929c0,.2031555-.1652832.3684235-.3684082.3684235H2.3684082c-.203125,0-.3684082-.1652679-.3684082-.3684235V5.4885048c0-.2031555.1652832-.3684311.3684082-.3684311h15.4421387m0-2H2.3684082c-1.3079834,0-2.3684082,1.060379-2.3684082,2.3684311v15.4420929c0,1.3080444,1.0604248,2.3684235,2.3684082,2.3684235h15.4421387c1.3081055,0,2.3684082-1.060379,2.3684082-2.3684235V5.4885048c0-1.3080521-1.0603027-2.3684311-2.3684082-2.3684311h0Z"/>
        <g>
          <g>
            <path class="cls-3" d="m11.3344159,16.0671658s.0288452-.0288803.0641085-.0641431l6.7925067-6.7925067c.0352978-.0352627.0669691-.0669691.0704222-.0704222l.0704222-.0704222,3.5989383-3.5989383v-.002337s-4.0170401-4.0169687-4.0170401-4.0169687h-.0023365s-3.5989389,3.5989382-3.5989389,3.5989382l-.0704216.0704216-.0704216.0704216-6.8563011,6.8563362-.0004189.0006981-1.5018234,4.9344952c-.1094612.3596535.2267369.6958524.5863906.586392l4.8481333-1.4755264c.047715-.0145455.0867805-.0264385.0867805-.0264385Zm-4.4957604.4743606l.8775394-2.883369.002715-.0006787,2.0058023,2.005802-.0006836.0027346-2.8833235.8775606-.0020495-.0020495Z"/>
            <path class="cls-3" d="m23.0807644,3.6258425c.4465974-.4465781.446609-1.1773539.0000259-1.6239463l-1.6669191-1.6669534c-.446578-.4465872-1.1773457-.4465909-1.6239282-.0000084l-.832295.832295c-.000628.0006279-.000628.0016742,0,.002337l3.2885098,3.2885103c.000628.000628.0016744.000628.0023364,0l.8322701-.8322342Z"/>
          </g>
          <g>
            <path class="cls-1" d="m11.3344159,16.0671658s.0288452-.0288803.0641085-.0641431l6.7925067-6.7925067c.0352978-.0352627.0669691-.0669691.0704222-.0704222l.0704222-.0704222,3.5989383-3.5989383v-.002337s-4.0170401-4.0169687-4.0170401-4.0169687h-.0023365s-3.5989389,3.5989382-3.5989389,3.5989382l-.0704216.0704216-.0704216.0704216-6.8563011,6.8563362-.0004189.0006981-1.5018234,4.9344952c-.1094612.3596535.2267369.6958524.5863906.586392l4.8481333-1.4755264c.047715-.0145455.0867805-.0264385.0867805-.0264385Zm-4.4957604.4743606l.8775394-2.883369.002715-.0006787,2.0058023,2.005802-.0006836.0027346-2.8833235.8775606-.0020495-.0020495Z"/>
            <path class="cls-1" d="m23.0807644,3.6258425c.4465974-.4465781.446609-1.1773539.0000259-1.6239463l-1.6669191-1.6669534c-.446578-.4465872-1.1773457-.4465909-1.6239282-.0000084l-.832295.832295c-.000628.0006279-.000628.0016742,0,.002337l3.2885098,3.2885103c.000628.000628.0016744.000628.0023364,0l.8322701-.8322342Z"/>
          </g>
        </g>
      </g>
    </g>
  </g>
</svg>