<?xml version="1.0" encoding="UTF-8"?>
<svg id="_レイヤー_2" data-name="レイヤー 2" xmlns="http://www.w3.org/2000/svg" viewBox="0 0 100.7574463 24.6430969">
  <defs>
    <style>
      .cls-1 {
        fill: none;
        stroke: #fff;
        stroke-linecap: round;
        stroke-miterlimit: 10;
        stroke-width: .9634134px;
      }

      .cls-2 {
        fill: #fff;
        stroke-width: 0px;
      }
    </style>
  </defs>
  <g id="_ヘッダー_フッター" data-name="ヘッダー・フッター">
    <g>
      <g>
        <path class="cls-2" d="m33.697876,19.8674469l-.4238281-.921875c.703125-.1103516,1.5537109-.3095703,2.5527344-.5976562.9990234-.2871094,1.7441406-.5556641,2.2363281-.8046875l.8476562.7802734c-.609375.3037109-1.4453125.609375-2.5078125.9169922-1.0625.3066406-1.9638672.515625-2.7050781.6269531Zm.4316406-9.5048828l-.7480469-.7216797c1.0849609-.6308594,2.0732422-1.3583984,2.9638672-2.1835938l.8544922.4980469c-.7910156.8466797-1.8144531,1.6494141-3.0703125,2.4072266Zm2.3730469-3.6933594c-.4980469-.2988281-1.25-.65625-2.2578125-1.0712891l.6816406-.7470703c.6308594.2109375,1.3886719.5507812,2.2734375,1.0214844l-.6972656.796875Zm-1.59375,10.7158203v-6.4658203h12.2939453v6.4658203h-12.2939453Zm1.2285156-4.6064453h9.7949219v-1.0458984h-9.7949219v1.0458984Zm0,1.8173828h9.7949219v-1.0703125h-9.7949219v1.0703125Zm9.7949219.7636719h-9.7949219v1.1455078h9.7949219v-1.1455078Zm-2.9960938-9.0146484c-.0166016.171875-.0361328.3212891-.0585938.4482422.1503906.5537109.6767578,1.109375,1.5820312,1.6689453.9042969.5585938,2.3613281,1.0097656,4.3701172,1.3525391l-.4980469.9296875c-1.6992188-.3203125-2.9951172-.7021484-3.8886719-1.1455078-.8935547-.4423828-1.5537109-.9677734-1.9794922-1.5771484-.4160156.6865234-1.1708984,1.2568359-2.2666016,1.7099609-1.0957031.4541016-2.2109375.7109375-3.3447266.7724609l-.2246094-.8466797c1.5771484-.171875,2.8115234-.5449219,3.7021484-1.1210938.890625-.5751953,1.3369141-1.2832031,1.3369141-2.125v-.0664062h-1.7441406c-.6582031.6699219-1.2138672,1.1318359-1.6679688,1.3867188l-.7138672-.5898438c.5087891-.3867188,1.0166016-.8466797,1.5234375-1.3779297.5058594-.53125.8671875-.9902344,1.0830078-1.3779297l1.2119141.2246094c-.2490234.359375-.4677734.6523438-.6552734.8798828h7.0390625l.2734375.4228516c-.6367188.9248047-1.3056641,1.6689453-2.0087891,2.2333984l-.8388672-.4316406c.3271484-.3105469.7089844-.7666016,1.1464844-1.3701172h-3.3789062Zm5.1298828,13.5224609c-2.4013672-.4707031-4.1591797-.9746094-5.2705078-1.5107422l.7636719-.8134766c1.4882812.5859375,3.1923828,1.0263672,5.1132812,1.3193359l-.6064453,1.0048828Z"/>
        <path class="cls-2" d="m51.0455322,17.4182281l-.8125-.6884766c.4423828-.4707031,1.0048828-1.2841797,1.6884766-2.4404297.6835938-1.1572266,1.1826172-2.1748047,1.4990234-3.0546875h-2.7402344v-1.0126953h3.0136719v-5.4042969h1.2539062v5.4042969h2.3066406v1.0126953h-2.3066406v.6054688c.4140625.5371094,1.2226562,1.2753906,2.4238281,2.2167969l-.6728516,1.0371094c-.6142578-.5087891-1.1982422-1.0703125-1.7509766-1.6845703v6.4082031h-1.2539062v-6.4082031c-.8408203,1.6269531-1.7236328,2.9628906-2.6484375,4.0087891Zm.5400391-8.1845703c-.1162109-.8847656-.2958984-2.0166016-.5400391-3.3945312l1.1796875-.1582031.5390625,3.4033203-1.1787109.1494141Zm5.4033203-.0332031l-1.0537109-.0996094.6396484-3.4199219,1.1777344.1416016-.7636719,3.3779297Zm.4902344,7.0224609l-.0332031-1.1035156,5.7363281-.6894531V4.6936188h1.3359375v9.5703125l1.6103516-.1904297v1.1123047l-1.6103516.1904297v4.2666016h-1.3359375v-4.1005859l-5.703125.6806641Zm3.1044922-2.7060547c-.7197266-1.0175781-1.5693359-2.1162109-2.5478516-3.2949219l.8789062-.7392578c.8476562.9248047,1.7441406,1.9814453,2.6894531,3.1708984l-1.0205078.8632812Zm1.0048828-4.0507812c-.6699219-.8964844-1.5253906-1.9667969-2.5654297-3.2119141l.9541016-.7304688c1.1513672,1.2617188,2.0068359,2.2958984,2.5654297,3.1044922l-.9541016.8378906Z"/>
        <path class="cls-2" d="m67.8551025,8.478775v-.9384766h5.5527344v.9384766h-5.5527344Zm1.5107422,10.5917969v.6220703h-1.1123047v-5.3369141h4.6816406v4.7148438h-3.5693359Zm-.9052734-12.8496094v-.9550781h4.515625v.9550781h-4.515625Zm.0253906,4.4902344v-.9208984h4.3994141v.9208984h-4.3994141Zm0,2.2412109v-.9707031h4.3994141v.9707031h-4.3994141Zm3.2705078,2.3164062h-2.3242188v2.8798828h2.3242188v-2.8798828Zm2.0830078-4.7148438v-.8964844h3.9179688v-1.2539062h-3.3115234v-.8632812h3.3115234v-1.1621094h-3.6767578v-.9208984h3.6767578v-.8466797h1.3037109v.8466797h3.9013672v.9208984h-3.9013672v1.1621094h3.5527344v.8632812h-3.5527344v1.2539062h4.2080078v.8964844h-9.4296875Zm7.4042969,6.1757812h-5.3945312v3.0546875h-1.2792969v-8.1679688h7.9199219v6.9638672c0,.3320312-.125.5976562-.3740234.796875s-.5556641.2988281-.9208984.2988281h-1.71875l-.125-1.0957031h1.2705078c.4150391,0,.6220703-.1767578.6220703-.53125v-1.3193359Zm0-3.0214844v-1.2119141h-5.3945312v1.2119141h5.3945312Zm-5.3945312,2.1328125h5.3945312v-1.2783203h-5.3945312v1.2783203Z"/>
        <path class="cls-2" d="m85.1519775,17.8586578l-.4804688-1.1455078c.8076172-.2548828,1.8613281-.6611328,3.1621094-1.2207031,1.3007812-.5585938,2.3320312-1.0429688,3.0957031-1.4521484l.3076172,1.0458984c-.4257812.2871094-1.2978516.7314453-2.6142578,1.3320312-1.3173828.6005859-2.4746094,1.0800781-3.4707031,1.4404297Zm6.6582031,1.9091797h-2.3242188l-.1914062-1.1787109h1.984375c.4589844,0,.6884766-.2158203.6884766-.6474609v-9.3964844h-6.640625v-1.0712891h6.640625v-3.0214844h1.3369141v3.0214844h4.3242188c-.3486328-.3867188-1.0517578-1.0537109-2.1083984-2l.8720703-.6894531c.5419922.4208984,1.2919922,1.0742188,2.2490234,1.9589844l-.9052734.7304688h2.6738281v1.0712891h-7.1054688v.7636719l.0996094.3320312c.2597656.8632812.9375,1.9453125,2.0332031,3.2451172,1.2675781-.9570312,2.3935547-1.9365234,3.3789062-2.9384766l1.0205078.796875c-1.0351562.9960938-2.2666016,1.9755859-3.6943359,2.9384766,1.4833984,1.6054688,3.0214844,2.921875,4.6152344,3.9511719l-.9208984.9716797c-1.4833984-1.0410156-2.7988281-2.1767578-3.9472656-3.4082031-1.1484375-1.2304688-2.0097656-2.4023438-2.5849609-3.5146484v6.7480469c0,.3769531-.1582031.6933594-.4736328.9501953-.3154297.2578125-.6552734.3867188-1.0205078.3867188Zm-3.0878906-6.2421875c-.5703125-1.0019531-1.3037109-2.0722656-2.2001953-3.2128906l1.1123047-.6054688c1.0126953,1.2998047,1.7675781,2.3574219,2.265625,3.1708984l-1.1777344.6474609Z"/>
      </g>
      <g>
        <path class="cls-2" d="m21.2525635,1.1999969v17.7342987l-3.8833008,4.5088043H1.1999512V1.1999969h20.0526123m.1083984-1.1999969H1.0916748C.4887695,0,0,.4887466,0,1.0916519v22.4741898c0,.5949554.4822998,1.0772552,1.0772705,1.0772552h16.8421631l4.5330811-5.2632751V1.0916519c0-.6029053-.4886475-1.0916519-1.0915527-1.0916519h0Z"/>
        <path class="cls-2" d="m17.4478945,24.0650503v-4.7599733c0-.2275608.1844745-.4120353.4120353-.4120353h4.2884078"/>
        <line class="cls-1" x1="3.7725143" y1="4.2159777" x2="18.6800685" y2="4.2159777"/>
        <line class="cls-1" x1="3.7725143" y1="7.3832546" x2="18.6800685" y2="7.3832546"/>
        <line class="cls-1" x1="3.7725143" y1="10.5505316" x2="18.6800685" y2="10.5505316"/>
        <line class="cls-1" x1="3.7725143" y1="13.7178085" x2="18.6800685" y2="13.7178085"/>
        <line class="cls-1" x1="3.7725143" y1="16.8850855" x2="18.6800685" y2="16.8850855"/>
      </g>
    </g>
  </g>
</svg>