<?xml version="1.0" encoding="UTF-8"?>
<svg id="_レイヤー_2" data-name="レイヤー 2" xmlns="http://www.w3.org/2000/svg" viewBox="0 0 139.5101254 17.7698082">
  <defs>
    <style>
      .cls-1 {
        fill: #fff;
        stroke-width: 0px;
      }
    </style>
  </defs>
  <g id="_ヘッダー_フッター" data-name="ヘッダー・フッター">
    <g>
      <path class="cls-1" d="M2.4107927.2139947c-.0002553.0002326-.0006259.0003464-.0008986.0006482C-.3381709,1.4665387-.8051047,6.345408,1.3664356,11.1117983c2.1717353,4.7658912,6.1596995,7.61502,8.9076907,6.3630966.8327856-.3795562,1.6234595-1.6535024,1.6234595-1.6535024.1299148-.2096229.0926111-.512102-.0831269-.6722236l-3.0884334-2.8092043c-.1758457-.1598337-.507851-.2050461-.7374749-.1002412l-1.4455475.6586755c-.2754179.1253084-.5838637.0676229-.7744961-.1216411-.0144853-.016177-.0284147-.0316583-.0428724-.0479091-.0058996-.0073044-.0120825-.0147064-.0182727-.022111-.6360072-.7342363-1.2448987-1.6850775-1.7432459-2.7788556-.4985352-1.0936801-.8161119-2.1767727-.9530646-3.1382718-.0010739-.0087806-.0026311-.0175737-.0039439-.026368-.0031312-.0219502-.0055915-.0434897-.0085959-.0659814-.0176873-.2679449.1411816-.5382972.4164395-.6640776l1.4467553-.6590482c.2298453-.1047221.4136613-.3848918.4083636-.6224857l-.0938499-4.1730637c-.0052137-.237571-.2091044-.4643335-.4526598-.5037407,0,0-1.4797832-.2398357-2.3127675.1391498Z"/>
      <g>
        <path class="cls-1" d="M23.6566098,15.6827557c-1.5107422,0-2.6201172-.5488281-3.3291016-1.6464844-.7099609-1.097168-1.0644531-2.8100586-1.0644531-5.1381836,0-2.3276367.3564453-4.043457,1.0683594-5.1469727.7119141-1.1030273,1.8203125-1.6547852,3.3251953-1.6547852,1.4921875,0,2.5966797.5532227,3.3115234,1.6591797.7148438,1.1064453,1.0732422,2.8149414,1.0732422,5.1254883,0,2.3334961-.3554688,4.0507812-1.0644531,5.1513672-.7099609,1.1000977-1.8164062,1.6503906-3.3203125,1.6503906ZM23.6566098,3.4220135c-.9707031,0-1.6748047.3911133-2.1123047,1.1738281-.4365234.7832031-.6552734,2.2172852-.6552734,4.3022461,0,2.0683594.21875,3.4951172.6552734,4.2807617.4375.7856445,1.1416016,1.1782227,2.1123047,1.1782227.9697266,0,1.6728516-.3925781,2.1064453-1.1782227.4345703-.7856445.6513672-2.2182617.6513672-4.2978516,0-2.0390625-.2158203-3.4589844-.6464844-4.2587891-.4316406-.800293-1.1357422-1.2001953-2.1113281-1.2001953Z"/>
        <path class="cls-1" d="M37.5247738,15.414201h-6.828125v-1.1958008h2.6738281V5.2413494h-2.6738281v-1.0571289c1.0439453-.0053711,1.7910156-.1572266,2.2392578-.4545898s.7011719-.7700195.7578125-1.4169922h1.2089844v11.9057617h2.6220703v1.1958008Z"/>
        <path class="cls-1" d="M48.7884457,15.414201h-8.5820312v-1.6894531c.9082031-.7973633,1.9287109-1.7246094,3.0605469-2.7817383,1.1328125-1.0571289,1.9736328-1.9868164,2.5244141-2.7900391.5507812-.8027344.8261719-1.605957.8261719-2.4086914,0-.7104492-.2314453-1.2651367-.6943359-1.6640625-.4628906-.3984375-1.0908203-.5976562-1.8857422-.5976562-1.1630859,0-2.3076172.3754883-3.4306641,1.1264648h-.0859375v-1.6894531c1.1464844-.5546875,2.3330078-.8320312,3.5595703-.8320312,1.2939453,0,2.3125.3193359,3.0566406.9575195.7431641.6381836,1.1152344,1.5092773,1.1152344,2.6123047,0,.5893555-.0957031,1.1523438-.2851562,1.6899414-.1904297.5371094-.4873047,1.0600586-.8896484,1.5683594-.4033203.5083008-.8857422,1.0483398-1.4482422,1.6201172-.5615234.5717773-1.8525391,1.7329102-3.8730469,3.4833984h7.0322266v1.3950195Z"/>
        <path class="cls-1" d="M55.0433285,15.6827557c-1.5107422,0-2.6201172-.5488281-3.3291016-1.6464844-.7099609-1.097168-1.0644531-2.8100586-1.0644531-5.1381836,0-2.3276367.3564453-4.043457,1.0683594-5.1469727.7119141-1.1030273,1.8203125-1.6547852,3.3251953-1.6547852,1.4921875,0,2.5966797.5532227,3.3115234,1.6591797.7148438,1.1064453,1.0732422,2.8149414,1.0732422,5.1254883,0,2.3334961-.3554688,4.0507812-1.0644531,5.1513672-.7099609,1.1000977-1.8164062,1.6503906-3.3203125,1.6503906ZM55.0433285,3.4220135c-.9707031,0-1.6748047.3911133-2.1123047,1.1738281-.4365234.7832031-.6552734,2.2172852-.6552734,4.3022461,0,2.0683594.21875,3.4951172.6552734,4.2807617.4375.7856445,1.1416016,1.1782227,2.1123047,1.1782227.9697266,0,1.6728516-.3925781,2.1064453-1.1782227.4345703-.7856445.6513672-2.2182617.6513672-4.2978516,0-2.0390625-.2158203-3.4589844-.6464844-4.2587891-.4316406-.800293-1.1357422-1.2001953-2.1113281-1.2001953Z"/>
        <path class="cls-1" d="M67.5433285,10.4317791h-5.3134766v-1.4555664h5.3134766v1.4555664Z"/>
        <path class="cls-1" d="M77.6995785,15.414201h-8.5820312v-1.6894531c.9082031-.7973633,1.9287109-1.7246094,3.0605469-2.7817383,1.1328125-1.0571289,1.9736328-1.9868164,2.5244141-2.7900391.5507812-.8027344.8261719-1.605957.8261719-2.4086914,0-.7104492-.2314453-1.2651367-.6943359-1.6640625-.4628906-.3984375-1.0908203-.5976562-1.8857422-.5976562-1.1630859,0-2.3076172.3754883-3.4306641,1.1264648h-.0859375v-1.6894531c1.1464844-.5546875,2.3330078-.8320312,3.5595703-.8320312,1.2939453,0,2.3125.3193359,3.0566406.9575195.7431641.6381836,1.1152344,1.5092773,1.1152344,2.6123047,0,.5893555-.0957031,1.1523438-.2851562,1.6899414-.1904297.5371094-.4873047,1.0600586-.8896484,1.5683594-.4033203.5083008-.8857422,1.0483398-1.4482422,1.6201172-.5615234.5717773-1.8525391,1.7329102-3.8730469,3.4833984h7.0322266v1.3950195Z"/>
        <path class="cls-1" d="M80.7737973,15.4659588v-1.5336914h.1015625c.4765625.2314453,1.0332031.3466797,1.6689453.3466797,2.6220703,0,4.0634766-1.5449219,4.3251953-4.6357422-1.1357422.6933594-2.1796875,1.0400391-3.1328125,1.0400391-1.2949219,0-2.3173828-.3652344-3.0693359-1.0961914-.7529297-.730957-1.1289062-1.7314453-1.1289062-3.0024414,0-1.3051758.4199219-2.3798828,1.2607422-3.2231445.8398438-.84375,1.8837891-1.2651367,3.1328125-1.2651367,1.4248047,0,2.5439453.4980469,3.3583984,1.4946289s1.2226562,2.4970703,1.2226562,4.5014648c0,2.402832-.5371094,4.2661133-1.609375,5.5888672-1.0732422,1.3227539-2.6113281,1.984375-4.6152344,1.984375-.5898438,0-1.0947266-.0668945-1.5146484-.199707ZM86.8695004,8.551408l.0253906-.7709961c0-1.409668-.2558594-2.4912109-.7666016-3.2451172s-1.2480469-1.1308594-2.2128906-1.1308594c-.8457031,0-1.515625.2758789-2.0097656.8276367s-.7402344,1.3129883-.7402344,2.2832031c0,.8320312.2294922,1.5151367.6894531,2.0493164s1.2197266.8012695,2.28125.8012695c.8691406,0,1.7792969-.2714844,2.7333984-.8144531Z"/>
        <path class="cls-1" d="M96.4945004,10.4317791h-5.3134766v-1.4555664h5.3134766v1.4555664Z"/>
        <path class="cls-1" d="M101.2659848,8.4908611v-.1040039c-1.3564453-.7509766-2.0341797-1.7241211-2.0341797-2.9199219,0-.987793.3916016-1.8022461,1.1748047-2.4433594.7832031-.6416016,1.7792969-.9619141,2.9882812-.9619141,1.2539062,0,2.2617188.3032227,3.0224609.909668s1.140625,1.4008789,1.140625,2.3828125c0,.6357422-.1884766,1.2319336-.5664062,1.7895508-.3769531.5571289-.9003906.9921875-1.5703125,1.3037109v.112793c1.6513672.722168,2.4775391,1.8022461,2.4775391,3.2407227,0,1.1206055-.4287109,2.0522461-1.2861328,2.7944336-.8564453.7421875-1.9296875,1.1132812-3.2177734,1.1132812-1.3681641,0-2.4609375-.3564453-3.2783203-1.0698242s-1.2255859-1.6479492-1.2255859-2.8032227c0-1.5078125.7919922-2.6225586,2.375-3.3447266ZM102.3050473,8.8028729c-1.1982422.6875-1.796875,1.6582031-1.796875,2.9116211,0,.8374023.2724609,1.5146484.8173828,2.0317383s1.2402344.7753906,2.0859375.7753906c.8691406,0,1.5585938-.2265625,2.0693359-.6801758.5107422-.453125.7666016-1.0756836.7666016-1.8671875,0-.5371094-.1171875-.9692383-.3496094-1.2954102s-.5722656-.6020508-1.0175781-.8276367c-.4453125-.2250977-1.3037109-.574707-2.5751953-1.0483398ZM105.9827817,5.3629315c0-.6240234-.2353516-1.1352539-.7060547-1.5336914-.4716797-.3984375-1.1015625-.5981445-1.890625-.5981445-.7490234,0-1.3603516.1865234-1.8349609.559082-.4736328.3725586-.7109375.8623047-.7109375,1.46875,0,.6699219.2958984,1.2216797.8857422,1.6547852.5898438.4335938,1.4873047.8378906,2.6904297,1.2133789,1.0439453-.6875,1.5664062-1.6088867,1.5664062-2.7641602Z"/>
        <path class="cls-1" d="M112.3782895,8.4908611v-.1040039c-1.3564453-.7509766-2.0341797-1.7241211-2.0341797-2.9199219,0-.987793.3916016-1.8022461,1.1748047-2.4433594.7832031-.6416016,1.7792969-.9619141,2.9882812-.9619141,1.2539062,0,2.2617188.3032227,3.0224609.909668s1.140625,1.4008789,1.140625,2.3828125c0,.6357422-.1884766,1.2319336-.5664062,1.7895508-.3769531.5571289-.9003906.9921875-1.5703125,1.3037109v.112793c1.6513672.722168,2.4775391,1.8022461,2.4775391,3.2407227,0,1.1206055-.4287109,2.0522461-1.2861328,2.7944336-.8564453.7421875-1.9296875,1.1132812-3.2177734,1.1132812-1.3681641,0-2.4609375-.3564453-3.2783203-1.0698242s-1.2255859-1.6479492-1.2255859-2.8032227c0-1.5078125.7919922-2.6225586,2.375-3.3447266ZM113.417352,8.8028729c-1.1982422.6875-1.796875,1.6582031-1.796875,2.9116211,0,.8374023.2724609,1.5146484.8173828,2.0317383s1.2402344.7753906,2.0859375.7753906c.8691406,0,1.5585938-.2265625,2.0693359-.6801758.5107422-.453125.7666016-1.0756836.7666016-1.8671875,0-.5371094-.1171875-.9692383-.3496094-1.2954102s-.5722656-.6020508-1.0175781-.8276367c-.4453125-.2250977-1.3037109-.574707-2.5751953-1.0483398ZM117.0950863,5.3629315c0-.6240234-.2353516-1.1352539-.7060547-1.5336914-.4716797-.3984375-1.1015625-.5981445-1.890625-.5981445-.7490234,0-1.3603516.1865234-1.8349609.559082-.4736328.3725586-.7109375.8623047-.7109375,1.46875,0,.6699219.2958984,1.2216797.8857422,1.6547852.5898438.4335938,1.4873047.8378906,2.6904297,1.2133789,1.0439453-.6875,1.5664062-1.6088867,1.5664062-2.7641602Z"/>
        <path class="cls-1" d="M128.4534848,15.414201h-6.828125v-1.1958008h2.6738281V5.2413494h-2.6738281v-1.0571289c1.0439453-.0053711,1.7910156-.1572266,2.2392578-.4545898s.7011719-.7700195.7578125-1.4169922h1.2089844v11.9057617h2.6220703v1.1958008Z"/>
        <path class="cls-1" d="M131.2523129,14.9200604v-1.7329102h.1357422c1.1064453.7338867,2.2587891,1.1005859,3.4570312,1.1005859.9189453,0,1.6552734-.2670898,2.2089844-.8012695.5537109-.534668.8300781-1.2724609.8300781-2.2138672,0-1.7099609-1.1523438-2.5649414-3.4570312-2.5649414-.6582031,0-1.5322266.1157227-2.6220703.3466797V2.3560955h7.6201172v1.4038086h-6.0869141v3.699707c.7490234-.074707,1.2539062-.1123047,1.5146484-.1123047,1.5273438,0,2.6855469.3349609,3.4736328,1.0048828.7890625.6704102,1.1835938,1.6464844,1.1835938,2.9287109,0,1.2939453-.4267578,2.3510742-1.28125,3.1713867s-1.9707031,1.2304688-3.3496094,1.2304688c-1.3398438,0-2.5488281-.2543945-3.6269531-.7626953Z"/>
      </g>
    </g>
  </g>
</svg>