<?xml version="1.0" encoding="UTF-8"?>
<svg id="_レイヤー_2" data-name="レイヤー 2" xmlns="http://www.w3.org/2000/svg" viewBox="0 0 103.6723286 23.3369684">
  <defs>
    <style>
      .cls-1 {
        fill: #fff;
        stroke-width: 0px;
      }
    </style>
  </defs>
  <g id="_ヘッダー_フッター" data-name="ヘッダー・フッター">
    <g>
      <g>
        <path class="cls-1" d="m36.6947896,18.2925077l-.5888672-.9130859c1.4658203-.6748047,2.8857422-1.5615234,4.2578125-2.6601562s2.3544922-2.0576172,2.9472656-2.8759766h-6.5078125v-1.0380859h3.1699219c-.5976562-1.3330078-1.03125-2.265625-1.3027344-2.796875l1.2539062-.3740234c.3476562.6591797.84375,1.7158203,1.4853516,3.1708984h2.2246094v-4.0419922h-6.3330078v-1.0048828h6.3330078v-1.7509766h1.3525391v1.7509766h6.5v1.0048828h-6.5v4.0419922h2.3242188c.7695312-1.2783203,1.3476562-2.3603516,1.7353516-3.2451172l1.3115234.3652344c-.4423828.8681641-.9931641,1.8291016-1.6523438,2.8798828h3.4042969v1.0380859h-6.890625c.5644531.8242188,1.6494141,1.8125,3.2539062,2.9628906,1.6054688,1.1513672,2.9970703,1.9453125,4.1757812,2.3828125l-.7304688,1.1035156c-1.2509766-.5361328-2.5439453-1.2929688-3.8808594-2.2705078-1.3359375-.9765625-2.3535156-1.9013672-3.0507812-2.7763672v5.9023438h-1.3525391v-5.7773438c-.8857422.9404297-1.9628906,1.8691406-3.2333984,2.7841797-1.2695312.9160156-2.5048828,1.6289062-3.7060547,2.1376953Z"/>
        <path class="cls-1" d="m53.6684224,15.711453l-.3652344-1.0957031c.5703125-.1162109,1.3720703-.3154297,2.4072266-.5976562v-5.5205078h-1.8681641v-.9873047h1.8681641v-3.3291016h1.2861328v3.3291016h1.6445312v.9873047h-1.6445312v5.1552734c.6425781-.1943359,1.1513672-.3623047,1.5273438-.5068359l.1171875.8798828c-.6640625.3544922-2.3222656.9160156-4.9726562,1.6855469Zm4.8144531,3.0546875l-.6386719-.7304688c1.8037109-1.0957031,3.2724609-2.4599609,4.4072266-4.0927734h-1.7021484c-.7021484.7861328-1.4882812,1.4609375-2.3574219,2.0253906l-.6054688-.7050781c1.4335938-1.0458984,2.4736328-2.2138672,3.1210938-3.5029297h-2.3076172v-.9384766h11.0810547v.9384766h-7.4375c-.2207031.4316406-.4697266.8466797-.7460938,1.2451172h7.4863281v.6142578c0,1.3115234-.0351562,2.2490234-.1074219,2.8134766-.0996094.7695312-.2431641,1.3339844-.4316406,1.6933594-.1220703.2324219-.3261719.4375-.6142578.6142578-.2880859.1777344-.6035156.2822266-.9462891.3154297-.0888672.0117188-.7412109.0166016-1.9589844.0166016l-.1914062-1.0703125h1.3945312c.3496094,0,.6484375-.0830078.8964844-.2490234.25-.1660156.4306641-.5878906.5439453-1.2666016.1132812-.6777344.1708984-1.4560547.1708984-2.3359375v-.2080078h-.9550781c-1.0957031,2.1865234-2.6455078,3.9013672-4.6484375,5.1464844l-.65625-.6386719c1.7216797-1.2236328,3.0634766-2.7255859,4.0263672-4.5078125h-1.7597656c-.5917969.96875-1.3603516,1.8847656-2.3037109,2.7480469s-1.8632812,1.5546875-2.7597656,2.0751953Zm1.3535156-9.1064453v-5.1708984h8.3916016v5.1708984h-8.3916016Zm1.2529297-2.9882812h5.8769531v-1.2617188h-5.8769531v1.2617188Zm5.8769531.8720703h-5.8769531v1.2285156h5.8769531v-1.2285156Z"/>
        <path class="cls-1" d="m78.0492817,19.0815702h-2.6142578l-.2080078-1.1376953h2.3408203c.2216797,0,.40625-.0673828.5566406-.203125.1484375-.1357422.2236328-.2949219.2236328-.4775391v-6.1923828h-7.0058594v-1.0371094h7.8779297c-1.3671875-.9580078-2.7451172-1.8427734-4.1347656-2.65625l.78125-.8134766c1.0175781.5644531,2.0390625,1.1669922,3.0625,1.8095703,1.9150391-1.0078125,3.328125-1.8710938,4.2421875-2.5898438h-10.7001953v-.9882812h12.2763672l.6728516.7636719c-1.3671875,1.1240234-3.2041016,2.2744141-5.5117188,3.453125.2216797.1494141.3896484.2714844.5068359.3652344l-.6894531.65625h6.5664062l.6220703.6386719c-.359375.5810547-.9423828,1.2900391-1.7470703,2.125-.8056641.8359375-1.5458984,1.4912109-2.2207031,1.9677734l-.8222656-.7226562c1.2128906-.9628906,2.1777344-1.953125,2.8974609-2.9716797h-5.3212891v6.7158203c0,.3486328-.1542969.6513672-.4648438.9082031-.3095703.2578125-.7050781.3867188-1.1865234.3867188Z"/>
        <path class="cls-1" d="m89.6772114,17.6538358l-1.0791016-.2080078c.4482422-1.3613281.6972656-2.7470703.7470703-4.1582031l1.2119141.0830078c-.2548828,2.1083984-.5478516,3.5361328-.8798828,4.2832031Zm1.9257812,1.4941406v-7.0888672c-1.1123047.0771484-2.0390625.1328125-2.7802734.1660156l-.1503906-1.0546875,1.1796875-.0332031c.4589844-.53125.9433594-1.1230469,1.4521484-1.7763672-.7910156-.8183594-1.6298828-1.6318359-2.5146484-2.4404297l.8300781-.7470703c.0605469.0498047.1630859.1416016.3066406.2744141.7246094-.9414062,1.2783203-1.7958984,1.6601562-2.5654297l1.1367188.4238281c-.5585938.890625-1.2529297,1.8310547-2.0830078,2.8222656l1.3447266,1.3447266c.8857422-1.1845703,1.5195312-2.1416016,1.9003906-2.8720703l1.1796875.4560547c-1.2011719,1.7597656-2.5078125,3.4365234-3.9179688,5.0302734l2.7304688-.1494141c-.1826172-.5644531-.3242188-.9794922-.4238281-1.2451172l.9882812-.2734375c.4707031,1.2001953.7890625,2.1083984.9550781,2.7226562l-1.0712891.2734375c-.0273438-.1269531-.0830078-.3232422-.1660156-.5888672-.4482422.0546875-.8691406.0996094-1.2617188.1328125v7.1884766h-1.2949219Zm3.0302734-2.2246094l-.5566406-3.5195312,1.1455078-.1328125.5556641,3.4775391-1.1445312.1748047Zm9.0390625-5.2548828c0,1.5556641-.0605469,2.8652344-.1826172,3.9306641s-.2519531,1.7695312-.3896484,2.1123047c-.1386719.34375-.3964844.6396484-.7724609.8886719s-.8105469.3759766-1.3037109.3818359c-.4921875.0048828-1.2470703.0078125-2.265625.0078125l-.1738281-1.1621094c.4921875.0058594.9238281.0087891,1.2949219.0087891.5644531,0,.9443359-.0214844,1.140625-.0625.1962891-.0419922.3808594-.1484375.5527344-.3193359.1708984-.171875.3095703-.4287109.4140625-.7724609.1054688-.3427734.1923828-1.0087891.2617188-1.9960938.0693359-.9882812.1035156-2.2753906.1035156-3.8642578v-3.7597656h-4.5400391c-.4873047,1.2832031-1.0380859,2.3623047-1.6513672,3.2373047l-1.0214844-.4980469c1.1181641-1.7265625,1.8818359-3.6806641,2.2910156-5.8603516l1.3115234.1904297c-.0888672.4375-.2822266,1.0908203-.5810547,1.9589844h5.5117188v5.578125Zm-4.5488281,2.3828125c-.8300781-2.1748047-1.3945312-3.5585938-1.6933594-4.1503906l1.1367188-.4316406c.5371094,1.0458984,1.1210938,2.4267578,1.7519531,4.1416016l-1.1953125.4404297Z"/>
      </g>
      <path class="cls-1" d="m22.2859253,2.1500029h-.7815329v.9864022c0,.9923563-.807299,1.7997303-1.7997303,1.7997303h-.9214019c-.9924313,0-1.7997303-.807374-1.7997303-1.7997303v-.9864022h-2.4725745v.9864022c0,.9923563-.807299,1.7997303-1.7997303,1.7997303h-.9214008c-.9924174,0-1.7997303-.807374-1.7997303-1.7997303v-.9864022h-2.4724256v.9864022c0,.9923563-.807299,1.7997303-1.7997303,1.7997303h-.9215369c-.9924304,0-1.7997303-.807374-1.7997303-1.7997303v-.9864022h-.781562c-1.2183133,0-2.2151089.9967957-2.2151089,2.2151081v16.7567493c0,1.2183125.9967956,2.2151081,2.2151089,2.2151081h20.0708164c1.2183124,0,2.2151231-.9967957,2.2151231-2.2151081V4.365111c0-1.2183125-.9968106-2.2151081-2.2151231-2.2151081Zm.7153478,18.9718575c0,.3877519-.3275959.7153328-.7153478.7153328H2.2151089c-.3877378,0-.7153337-.3275809-.7153337-.7153328V7.9997714h21.5014979v13.1220889ZM11.7897782,3.8863227h.9214919c.4124382,0,.7498876-.3374494.7498876-.7498876V.7498876c0-.4124382-.3374494-.7498876-.7498876-.7498876h-.9214919c-.4124382,0-.7498876.3374494-.7498876.7498876v2.3865474c0,.4124382.3374494.7498876.7498876.7498876Zm-6.9934061,0h.921491c.4124382,0,.7498876-.3374494.7498876-.7498876V.7498876c0-.4124382-.3374494-.7498876-.7498876-.7498876h-.921491c-.4124382,0-.7498876.3374494-.7498876.7498876v2.3865474c0,.4124382.3374494.7498876.7498876.7498876Zm13.9868131,0h.9215069c.4124382,0,.7498876-.3374494.7498876-.7498876V.7498876c0-.4124382-.3374494-.7498876-.7498876-.7498876h-.9215069c-.4124382,0-.7498876.3374494-.7498876.7498876v2.3865474c0,.4124382.3374494.7498876.7498876.7498876Zm-10.9730306,5.6353007h-3.9417393v2.5190526h3.9417393v-2.5190526Zm6.4112392,0h-3.9417393v2.5190526h3.9417393v-2.5190526Zm6.4112556,0h-3.9417407v2.5190526h3.9417407v-2.5190526Zm-12.8224948,4.1801587h-3.9417393v2.5190526h3.9417393v-2.5190526Zm6.4112392,0h-3.9417393v2.5190526h3.9417393v-2.5190526Zm6.4112556,0h-3.9417407v2.5190526h3.9417407v-2.5190526Zm-12.8224948,4.1801587h-3.9417393v2.5190526h3.9417393v-2.5190526Zm6.4112392,0h-3.9417393v2.5190526h3.9417393v-2.5190526Zm6.4112556,0h-3.9417407v2.5190526h3.9417407v-2.5190526Z"/>
    </g>
  </g>
</svg>